<?xml version="1.0" encoding="utf-8"?>
<!-- Generator: Adobe Illustrator 16.2.1, SVG Export Plug-In . SVG Version: 6.00 Build 0)  -->
<!DOCTYPE svg PUBLIC "-//W3C//DTD SVG 1.1//EN" "http://www.w3.org/Graphics/SVG/1.1/DTD/svg11.dtd">
<svg version="1.1" id="Layer_1" xmlns="http://www.w3.org/2000/svg" xmlns:xlink="http://www.w3.org/1999/xlink" x="0px" y="0px"
	 width="75px" height="75px" viewBox="-22.5 -21.25 75 75" enable-background="new -22.5 -21.25 75 75" xml:space="preserve">
<g>
	<path d="M15,6.661c-5.455,0-9.893,4.302-9.893,9.591c0,5.283,4.438,9.588,9.893,9.588c5.454,0,9.892-4.303,9.892-9.588
		C24.897,10.968,20.461,6.661,15,6.661z M15,22.916c-3.791,0-6.877-2.986-6.877-6.664c0-3.681,3.081-6.666,6.877-6.666
		c3.795,0,6.876,2.985,6.876,6.666C21.883,19.93,18.791,22.916,15,22.916z"/>
	<path d="M39.135,6.661c-5.459,0-9.896,4.302-9.896,9.591c0,5.283,4.438,9.588,9.896,9.588c5.457,0,9.895-4.303,9.895-9.588
		C49.024,10.968,44.587,6.661,39.135,6.661z M39.135,22.916c-3.789,0-6.875-2.986-6.875-6.664c0-3.681,3.081-6.666,6.875-6.666
		c3.793,0,6.879,2.985,6.879,6.666C46.014,19.93,42.924,22.916,39.135,22.916z"/>
	<path d="M-9.132,6.661c-5.461,0-9.897,4.302-9.897,9.591c0,5.283,4.443,9.588,9.897,9.588s9.893-4.303,9.893-9.588
		C0.761,10.968-3.677,6.661-9.132,6.661z M-9.132,22.916c-3.791,0-6.877-2.986-6.877-6.664c0-3.681,3.082-6.666,6.877-6.666
		c3.791,0,6.875,2.985,6.875,6.666C-2.257,19.93-5.341,22.916-9.132,22.916z"/>
</g>
</svg>
